<svg xmlns="http://www.w3.org/2000/svg" width="375" viewBox="0 0 375 375" height="375" version="1.0"><g fill="#6D28D9"><g><g><path d="M 229.9375 -165.171875 C 235.09375 -165.171875 238.8125 -166.3125 241.09375 -168.59375 C 243.382812 -170.882812 246.960938 -175.75 251.828125 -183.1875 L 304.15625 -262.984375 C 305.875 -265.835938 307.804688 -267.765625 309.953125 -268.765625 C 312.097656 -269.765625 314.316406 -270.265625 316.609375 -270.265625 L 323.890625 -270.265625 C 327.898438 -270.265625 330.832031 -269.191406 332.6875 -267.046875 C 334.550781 -264.898438 335.484375 -261.539062 335.484375 -256.96875 L 335.484375 -38.609375 L 331.1875 -38.609375 L 331.1875 -256.96875 C 331.1875 -259.257812 330.6875 -261.332031 329.6875 -263.1875 C 328.6875 -265.050781 326.753906 -265.984375 323.890625 -265.984375 L 317.453125 -265.984375 C 315.453125 -265.984375 313.738281 -265.695312 312.3125 -265.125 C 310.882812 -264.550781 309.3125 -262.832031 307.59375 -259.96875 L 255.25 -181.03125 C 250.101562 -173.3125 246.171875 -168.019531 243.453125 -165.15625 C 240.734375 -162.300781 236.226562 -160.875 229.9375 -160.875 C 223.644531 -160.875 219.140625 -162.300781 216.421875 -165.15625 C 213.710938 -168.019531 209.785156 -173.3125 204.640625 -181.03125 L 152.296875 -259.96875 C 150.578125 -262.832031 148.929688 -264.550781 147.359375 -265.125 C 145.785156 -265.695312 144 -265.984375 142 -265.984375 L 135.5625 -265.984375 C 132.707031 -265.984375 130.847656 -265.050781 129.984375 -263.1875 C 129.128906 -261.332031 128.703125 -259.257812 128.703125 -256.96875 L 128.703125 -38.609375 L 124.40625 -38.609375 L 124.40625 -256.96875 C 124.40625 -261.539062 125.332031 -264.898438 127.1875 -267.046875 C 129.050781 -269.191406 131.84375 -270.265625 135.5625 -270.265625 L 142.859375 -270.265625 C 145.140625 -270.265625 147.425781 -269.765625 149.71875 -268.765625 C 152.007812 -267.765625 154.015625 -265.835938 155.734375 -262.984375 L 208.0625 -183.1875 C 212.925781 -175.75 216.5 -170.882812 218.78125 -168.59375 C 221.070312 -166.3125 224.789062 -165.171875 229.9375 -165.171875 Z M 158.296875 0 C 163.734375 0 167.664062 -1.210938 170.09375 -3.640625 C 172.53125 -6.078125 173.75 -10.007812 173.75 -15.4375 L 173.75 -166.453125 L 199.0625 -119.6875 C 201.632812 -114.820312 204.707031 -111.316406 208.28125 -109.171875 C 211.851562 -107.035156 216.359375 -105.96875 221.796875 -105.96875 L 238.953125 -105.96875 C 244.390625 -105.96875 248.894531 -107.035156 252.46875 -109.171875 C 256.039062 -111.316406 259.113281 -114.820312 261.6875 -119.6875 L 287 -166.453125 L 287 -15.4375 C 287 -10.007812 288.210938 -6.078125 290.640625 -3.640625 C 293.078125 -1.210938 297.007812 0 302.4375 0 L 368.515625 0 C 373.941406 0 377.867188 -1.210938 380.296875 -3.640625 C 382.734375 -6.078125 383.953125 -10.007812 383.953125 -15.4375 L 383.953125 -293.4375 C 383.953125 -298.875 382.734375 -302.804688 380.296875 -305.234375 C 377.867188 -307.660156 373.941406 -308.875 368.515625 -308.875 L 299.015625 -308.875 C 294.441406 -308.875 290.648438 -307.875 287.640625 -305.875 C 284.640625 -303.875 281.851562 -300.585938 279.28125 -296.015625 L 241.09375 -226.078125 C 239.664062 -223.503906 238.453125 -221.644531 237.453125 -220.5 C 236.453125 -219.363281 235.09375 -218.796875 233.375 -218.796875 L 229.515625 -218.796875 C 227.796875 -218.796875 226.4375 -219.363281 225.4375 -220.5 C 224.4375 -221.644531 223.222656 -223.503906 221.796875 -226.078125 L 183.1875 -296.015625 C 180.613281 -300.585938 177.820312 -303.875 174.8125 -305.875 C 171.8125 -307.875 168.023438 -308.875 163.453125 -308.875 L 94.375 -308.875 C 88.945312 -308.875 85.015625 -307.660156 82.578125 -305.234375 C 80.148438 -302.804688 78.9375 -298.875 78.9375 -293.4375 L 78.9375 -15.4375 C 78.9375 -10.007812 80.148438 -6.078125 82.578125 -3.640625 C 85.015625 -1.210938 88.945312 0 94.375 0 Z M 172.03125 0.421875 L 116.265625 46.765625 C 115.117188 47.910156 113.328125 48.910156 110.890625 49.765625 C 108.460938 50.617188 105.816406 51.046875 102.953125 51.046875 L 39.03125 51.046875 C 32.175781 51.046875 27.175781 49.472656 24.03125 46.328125 C 20.882812 43.179688 19.3125 38.175781 19.3125 31.3125 L 19.3125 -246.671875 C 19.3125 -250.390625 19.8125 -253.535156 20.8125 -256.109375 C 21.8125 -258.679688 23.3125 -260.828125 25.3125 -262.546875 L 80.65625 -309.3125 C 82.082031 -310.457031 84.007812 -311.382812 86.4375 -312.09375 C 88.875 -312.8125 91.519531 -313.171875 94.375 -313.171875 L 163.453125 -313.171875 C 168.878906 -313.171875 173.378906 -312.023438 176.953125 -309.734375 C 180.535156 -307.453125 183.898438 -303.59375 187.046875 -298.15625 L 216.21875 -244.53125 L 220.078125 -251.390625 C 221.222656 -253.390625 222.4375 -255.316406 223.71875 -257.171875 C 225.007812 -259.035156 226.367188 -260.539062 227.796875 -261.6875 L 283.140625 -308.015625 C 285.429688 -309.734375 287.789062 -311.019531 290.21875 -311.875 C 292.644531 -312.738281 295.578125 -313.171875 299.015625 -313.171875 L 368.515625 -313.171875 C 375.378906 -313.171875 380.382812 -311.597656 383.53125 -308.453125 C 386.675781 -305.304688 388.25 -300.300781 388.25 -293.4375 L 388.25 -15.4375 C 388.25 -11.71875 387.742188 -8.570312 386.734375 -6 C 385.734375 -3.425781 384.234375 -1.285156 382.234375 0.421875 L 326.46875 46.765625 C 325.320312 47.910156 323.53125 48.910156 321.09375 49.765625 C 318.664062 50.617188 316.023438 51.046875 313.171875 51.046875 L 247.109375 51.046875 C 239.953125 51.046875 234.875 49.472656 231.875 46.328125 C 228.875 43.179688 227.375 38.175781 227.375 31.3125 L 227.375 -81.9375 L 202.0625 -60.921875 C 199.769531 -58.921875 197.125 -57.414062 194.125 -56.40625 C 191.125 -55.40625 187.617188 -54.90625 183.609375 -54.90625 L 178.03125 -54.90625 L 178.03125 -15.4375 C 178.03125 -11.71875 177.53125 -8.570312 176.53125 -6 C 175.53125 -3.425781 174.03125 -1.285156 172.03125 0.421875 Z M 172.03125 0.421875" transform="translate(-16.158 319.693)"/></g></g></g></svg>